<svg id="Layer_1" data-name="Layer 1" xmlns="http://www.w3.org/2000/svg" viewBox="0 0 886.48 594.62"><defs><style>.cls-1{fill:#053f27;}</style></defs><path class="cls-1" d="M816.06,661.65a8,8,0,0,0-2.35.26c-2.31.73-4.61,1.48-6.85,2.37-3.52,1.4-7,2.91-10.47,4.41-1.7.73-3.35,1.56-5.26,2.47.07-1,.07-1.51.17-2,.69-3.41,1.41-6.8,2.1-10.2a4.42,4.42,0,0,0-3.42-5.35c-.76,1.17-1.64,2.38-2.37,3.67-1.71,3-3.21,6.18-5,9.14a30,30,0,0,1-7.64,8.78,3.42,3.42,0,0,1-3.34.43c-1.11-.36-1-1.56-.91-2.5.19-2.49-.13-5,.8-7.48s1.58-5.43,2.95-7.94c.81-1.5.6-2.55-.83-3.72-1-.78-1.81-.59-3.05.73a4.31,4.31,0,0,0-.9,1.11c-.78,1.73-1.49,3.5-2.24,5.24-.61,1.4-.94,3.08-1.93,4.12-3.72,3.91-7.63,7.62-12.63,10-3.27,1.53-6.55,2.73-10.24,2.36a5,5,0,0,1-4.8-5.54,22.1,22.1,0,0,1,.75-5.75,20.87,20.87,0,0,1,5.51-8.45,11.62,11.62,0,0,1,2.69-1.41c-.34,1.77-.58,3.09-.85,4.4-.22,1.06-.06,2,1.09,2.31s1.58-.45,2.1-1.19c1.62-2.29,1.33-4.93.89-7.38a4.28,4.28,0,0,0-2.78-2.57,5.61,5.61,0,0,0-4.59.75,19.27,19.27,0,0,0-4.77,4.2c-1.4,1.83-2.91,3.51-3.33,5.88-.08.41-.51.78-.81,1.13a52.23,52.23,0,0,1-11.16,10.35,11.83,11.83,0,0,1-5.4,2.3c-2.24.17-3.38-.77-3.36-3a16.12,16.12,0,0,1,.71-5c.75-2.32,1.69-4.52,2.63-6.74a4.23,4.23,0,0,0-.09-3.51l-2-.39a12,12,0,0,0-1.32-2.4c-.88-1-1.84-2.34-3-2.6-3.39-.77-6.78-.55-9.63,1.89a5,5,0,0,1-1.14.86c-2.7,1.26-3.83,3.92-5.42,6.14a4,4,0,0,1-1.83,1.66c-4.12,1.73-8.21,3.54-12.27,5.4-1.77.81-3.45,1.82-5.39,2.86a18.39,18.39,0,0,1,.66-3.26c.65-1.56.53-3.29,1.06-4.78.8-2.28.51-4.57.76-6.84.1-.92-1.45-3-2.28-3-1.65-.14-3.35-.4-4.84.71-.56.41-1.2,1.14-1.73,1.08s-1.26-.83-1.9-1.26c-1.39-.95-2.88-1.78-4.62-1.31a16.61,16.61,0,0,0-9.84,7.78c-1.21,1.94-2.37,3.91-4.42,5.18-1.61,1-3.12,2.17-4.7,3.24-4.38,3-8.7,6-14.07,7.11-2.87.59-8-2.25-6.93-6.27.16-.59.29-1.2.45-1.88,2.2.68,3.94-.45,5.72-1.19,2.33-1,3.39-3.14,4.69-5.18s.62-3.41-.33-5-3.5-2.81-5.17-2.24a18.69,18.69,0,0,0-3.42,1.6,14.47,14.47,0,0,0-6.65,9.2,18.27,18.27,0,0,0,0,7.58,9,9,0,0,0,4.92,6.16c3.86,2,8.09,1.23,11.73-.31a45.31,45.31,0,0,0,12.28-7.57,15.15,15.15,0,0,1,2.73-1.52,9.74,9.74,0,0,0,.11,1.45c.87,3.08,3.91,5.21,6.89,2.8a47.82,47.82,0,0,0,4.53-3.84c2.75-2.86,5.31-5.92,8-8.82,1.2-1.28,2.6-2.38,4.17-3.8a6.23,6.23,0,0,1,.29,1.57,49.12,49.12,0,0,1-1,6c-.82,3-1.82,6-2.84,8.92-.43,1.24-.81,2.66-2.58,2.71-.18,0-.37.27-.54.42-2.18,1.85-4.43,3.62-6.53,5.56-2.51,2.31-4.89,4.79-7.38,7.15a13.88,13.88,0,0,1-2.07,1.36,13.14,13.14,0,0,1-.9,2.26c-.87,1.41-2,2.65-2.77,4.11-1.78,3.47-4.09,6.68-4.68,10.76a31.61,31.61,0,0,0-.64,4.16,5.63,5.63,0,0,0,3.13,5.23,3.1,3.1,0,0,0,2.25.39,13.51,13.51,0,0,0,3.74-2,35.8,35.8,0,0,0,7.22-8.21A138.37,138.37,0,0,0,666,693a148.61,148.61,0,0,0,6.23-14A6.07,6.07,0,0,1,674,676.5a24.64,24.64,0,0,1,4.1-2.41c3.05-1.53,6.14-3,9.23-4.48,1.43-.68,2.91-1.24,4.7-2a17.22,17.22,0,0,0-1,3,15.66,15.66,0,0,0,1.22,7.64c1.17,2.83,4.59,3.41,7.06,2.05a23.73,23.73,0,0,0,7.69-6.62,9.4,9.4,0,0,1,1.3-1.21c.55,1.6.94,3,1.51,4.35,1,2.19,5.11,4.59,7.05,4a22.91,22.91,0,0,0,3.8-1.27,34.37,34.37,0,0,0,9-6.47c.77-.78,1.61-1.5,2.84-2.64.24,2.39.16,4.18,1.17,5.81s2.25,3.67,4.09,4.45a15.45,15.45,0,0,0,10.05.75,34.75,34.75,0,0,0,8.19-3.68,37.89,37.89,0,0,0,8.68-6.67c.08-.08.3,0,.45,0,.44,1.39.93,2.77,1.31,4.17.74,2.78,2.76,4.15,5.35,4.67a5.37,5.37,0,0,0,4.59-1.47c2.5-2.31,4.78-4.86,7.16-7.31.35-.36.74-.7,1.1-1l.5.13c0,.76,0,1.51,0,2.27a4.08,4.08,0,0,1-2.2,3.86,62.51,62.51,0,0,0-9.73,7.61,60.62,60.62,0,0,0-8.13,9c-1.46,2.14-3.29,4-4.11,6.59-.51,1.57-1.12,3.11-1.75,4.63a21,21,0,0,0-1.63,7.26,9.29,9.29,0,0,0,1.22,4.29,2.8,2.8,0,0,0,1.94,1.5c2.7.1,5.51.06,7.62-2a64.63,64.63,0,0,0,5-5.48c2.9-3.52,4.88-7.63,7-11.61a54.48,54.48,0,0,0,4.45-9.36c1.17-3.73,2.87-7.26,3.86-11.06a3.83,3.83,0,0,1,1.72-1.85c1.65-1,3.38-2,5.11-2.86a79.17,79.17,0,0,1,7.56-3.74c3.55-1.39,7.23-2.44,10.85-3.66a22.84,22.84,0,0,0,2.64-1,1.76,1.76,0,0,0,1.09-1.95C817.55,661.76,816.78,661.65,816.06,661.65Zm-186.7-2.45c.83,1.27,0,2.22-.7,3.13-1.21,1.54-2.62,2-4.8,1.78C624.35,661.33,626,659.86,629.36,659.2Zm34.72,1.46c-8.14,9.38-8.14,9.38-10.54,9.72a18.75,18.75,0,0,1,6.66-11.31,4.17,4.17,0,0,1,4.77-.89C665.56,659.35,664.68,660,664.08,660.66Zm-8.76,42.15a84.37,84.37,0,0,1-6.25,8.41,4.33,4.33,0,0,1-3.3,1.87c-.77-2.75-.06-5.23.9-7.67A45.4,45.4,0,0,1,659.1,688c1.55-1.37,3.11-2.73,4.69-4.06a6.85,6.85,0,0,1,1.42-.59A128.48,128.48,0,0,1,655.32,702.81Zm54.73-39.73A49.37,49.37,0,0,1,700,675.14a15.13,15.13,0,0,1-2.61,1.42,3,3,0,0,1-1-3.61,65.25,65.25,0,0,1,2.36-6.41c2.06-3.92,4.65-7.42,9-9.12,1.74-.68,2.68-.34,2.85,1.5A7.06,7.06,0,0,1,710.05,663.08Zm71.29,22.46c-2.42,6.16-4.86,12.33-8.44,17.94a77.88,77.88,0,0,1-5.65,7.66c-1.43,1.72-2.84,2.12-5.33,2.08-.09-.69-.24-1.42-.29-2.17-.32-4.58,1.73-8.44,3.82-12.28,3.3-6,8.42-10.52,13.32-15.18a33.82,33.82,0,0,1,4-2.73C782.2,682.79,781.86,684.2,781.34,685.54Z" transform="translate(-107.99 -123.63)"/><path class="cls-1" d="M439.62,662.3c-2,1.21-4.07,2.32-5.95,3.69-3.74,2.74-8,4.53-12,6.69a20.17,20.17,0,0,1-2.67,1c.14-5.38,11.86-38.88,16.67-44.5a2.35,2.35,0,0,0,3.13,1.87c1.83-2.43,1.89-3.93.31-6.28a3.25,3.25,0,0,0-4.93-.64,19.25,19.25,0,0,0-4.38,5.57c-2.16,3.75-4.11,7.62-5.91,11.56s-3.3,7.74-4.72,11.7c-1.08,3-1.76,6.16-2.74,9.21a11.16,11.16,0,0,1-1.75,3.54c-2.41,3-5.54,5.25-8.55,7.58a18.35,18.35,0,0,1-3.67,2.23,11,11,0,0,1-3.63,1,2.76,2.76,0,0,1-3-2.71c-.11-2.2.67-4.28,1.2-6.36s1.74-4.14,2.58-6.22a2.33,2.33,0,0,0-1.35-3.24,7.4,7.4,0,0,0-1.34-.31,6.3,6.3,0,0,0-5.54-5c-2.81-.21-5.52,0-7.8,2a28.65,28.65,0,0,0-6.34,6.7c-1.06,1.72-1.87,3.69-3.72,4.86-2.45,1.54-4.87,3.11-7.27,4.74-3.4,2.3-6.83,4.43-11,5.24-3.47.67-6.3-.92-7.1-3.57a16,16,0,0,1-.29-4,50.27,50.27,0,0,0,6-1.49c2.79-1.06,4.26-3.52,5.28-6.13a4.46,4.46,0,0,0-1-4.86,4.74,4.74,0,0,0-4.51-1.59,10.62,10.62,0,0,0-3.28,1.35c-5.49,3.65-8.15,8.77-7.53,15.4a9.73,9.73,0,0,0,5.35,7.75c3.75,2,7.89,1.28,11.67-.3A49.74,49.74,0,0,0,371.15,672a4.51,4.51,0,0,1,1.45-.55c.45,1.82.87,3.4,1.24,5,.67,3,4,6.18,7.93,3.62,1.65-1.08,3.24-2.26,4.86-3.4a5.84,5.84,0,0,1,1.37-.89c1.07-.35,2.19-.55,3.29-.81.59,1.92.59,1.92,2.48,3.89a6.11,6.11,0,0,0,6.73,1.57,28.4,28.4,0,0,0,10.56-6.65,13.78,13.78,0,0,1,1.84-1.3c-.1,1.19.1,2.14-.27,2.52a21.42,21.42,0,0,1-3.14,2.19c-.6,1.53,0,2.62,1.72,3.19-.13,1.79-.94,3.31-1.1,5s-.89,3.16-.81,4.85c0,.22-.18.44-.24.67-.23.89-.47,1.79-.64,2.7-.12.62-.09,1.26-.19,1.88-.19,1.25-.44,2.49-.63,3.73s-.33,2.19-.47,3.29c-.55,4.2-1.09,8.38.34,12.54,1,3,1.59,3.4,5,3.07.59-1,1.32-2,1.87-3.16a47.54,47.54,0,0,0,2.9-8.93,41.4,41.4,0,0,0,1.5-10.54c0-1.92,0-3.84.07-5.75a15.4,15.4,0,0,0-1.67-8c-.8-1.5-.28-2.83,1.3-3.68.54-.29,1.1-.55,1.66-.81,1.7-.78,3.47-1.45,5.11-2.35,4.43-2.43,8.88-4.85,13.19-7.49,1.68-1,3.67-1.94,4.42-4C441.12,661.6,440.91,661.52,439.62,662.3Zm-84.79-3.06c.94,3-1.71,5.38-5.61,4.82C350.54,661.51,351.91,659.48,354.83,659.24Zm36.42,5.68a83,83,0,0,1-8.76,10,4.9,4.9,0,0,1-3.22,1.42c-1.07-4.71.62-8.48,3.1-12,.77-1.11,1.61-2.16,2.39-3.26,1.46-2.07,3.75-2.88,5.91-3.84,1.25-.56,2.31.18,2.6,1.57C393.79,661.23,392.6,663.17,391.25,664.92Zm20.3,47.22c-1-1.15-.52-2.45-.44-3.63.14-2.14.36-4.29.71-6.41.39-2.42,1-4.8,1.45-7.2.39-1.93.78-3.86,1.19-5.78.09-.44.25-.86.43-1.45C416.7,691.21,414.87,704.18,411.55,712.14Z" transform="translate(-107.99 -123.63)"/><path class="cls-1" d="M621.63,700.92a8.4,8.4,0,0,0-3.55-1.09c-4.08-.13-8.16-.05-12.24,0a4.76,4.76,0,0,0-1.65.16c-2.94,1.09-6.09.87-9.09,1.54-1.69.38-3.41.64-5.07,1.12-2.7.77-5.36,1.69-8.7,2.75.14-1.7.13-2.87.35-4,.42-2.24,1-4.45,1.46-6.68.38-1.85.52-3.76,1.06-5.56.94-3.12,2.06-6.19,2.78-9.37a26.29,26.29,0,0,1,.81-3.2c1.42-4,2.94-7.9,4.36-11.86,1.58-4.42,3-8.91,4.64-13.28,1.84-4.75,3.93-9.4,6-14.07q2.47-5.73,5.07-11.42c1.09-2.37,2.31-4.67,3.43-7a2.31,2.31,0,0,0-.91-3.3c-1-.58-1.92-.28-2.83.94a13,13,0,0,0-.8,1.19,123.91,123.91,0,0,0-8.19,16.73c-1.37,3.24-2.68,6.51-4.14,9.72s-1.81,6.54-3.83,9.35c.26,2.25-1.42,3.91-1.84,6-.45,2.32-2.07,4.41-2.5,6.72s-2.18,4.3-2,6.8c0,.07-.08.14-.1.21a54.87,54.87,0,0,0-2.4,7.83c-.29,1.46-.74,2.88-1.13,4.32-.56,2-1.25,4-1.66,6.11s-.41,4.46-1,6.6c-.63,2.45-1,4.82-.23,7.27a1,1,0,0,1-.77,1.47c-2.69.85-5.42,1.6-8.05,2.59a4.15,4.15,0,0,0-2.11,2c-.42.94.7,1.46,1.34,2a.51.51,0,0,0,.28.1c1.12-.31,2.11-.51,3-.86,3.66-1.34,7.29-2.75,10.95-4.1a32,32,0,0,1,3.57-1.11c1.75-.42,3.67-.43,5.28-1.16,3.16-1.45,6.59-1.41,9.87-2.2,2.15-.52,4.58.55,6.62-1a63.09,63.09,0,0,1,9.92.1,3.06,3.06,0,0,1,.42.78,1.66,1.66,0,0,0,2,1.53,3.23,3.23,0,0,0,2.33-2.12A2.11,2.11,0,0,0,621.63,700.92Z" transform="translate(-107.99 -123.63)"/><path class="cls-1" d="M519.41,663.9l-.3.37A54.56,54.56,0,0,1,506.63,675a8.1,8.1,0,0,1-4.95,1.53,3,3,0,0,1-2.82-3,18.2,18.2,0,0,1,1.26-6.16c.84-2.45,1.95-4.81,2.95-7.21a2.86,2.86,0,0,0-3.28-2.34,5,5,0,0,0-3.61-5,10,10,0,0,0-8.32.94c-4.78,3-10.33,9.25-11.05,15.79,0,.38-.33.73-.38,1.12a16.63,16.63,0,0,0-.31,3.28,11.74,11.74,0,0,0,.8,2.48c1.12,3.61,3.34,5,6.45,4.37a7.61,7.61,0,0,0,2.91-1.52c2.38-1.83,4.68-3.78,7.07-5.74.37.54,1.14,1.19,1.26,1.94a5.89,5.89,0,0,0,2.71,3.79c1.58,1.17,3.39,2.2,5.48,1.45a25.09,25.09,0,0,0,5.16-2.34c5.95-3.88,11.41-8.35,15.44-14.31C521.74,662,521,662,519.41,663.9ZM494.47,665a58.65,58.65,0,0,1-8.74,9.75,24.25,24.25,0,0,1-3.07,2.07l-.68-.41c.07-2.14-.17-4.17.6-6.41a28.4,28.4,0,0,1,6.21-10c1.42-1.55,3.34-2.1,5.09-3,1.14-.57,2.24.37,2.48,1.77C496.77,661.14,495.74,663.11,494.47,665Z" transform="translate(-107.99 -123.63)"/><path class="cls-1" d="M347.21,700.92a6.83,6.83,0,0,0-3.8-1.18c-3.12.13-6.24,0-9.36,0a21.86,21.86,0,0,0-3.34.12c-2.65.44-5.26,1.11-7.91,1.48a59.32,59.32,0,0,0-11,2.71,42.16,42.16,0,0,1-4.24.94c.31-2.62.53-5,.88-7.32.21-1.48.88-2.94.85-4.4,0-1.89,1.07-3.36,1.34-5.13a47.65,47.65,0,0,1,1.9-7.07c.7-2.22,1.6-4.38,2.31-6.6s1.32-4.64,2.08-6.93,1.62-4.41,2.42-6.62c1.32-3.6,2.57-7.22,3.95-10.8.64-1.67,1.67-3.19,2.23-4.88a117.12,117.12,0,0,1,6.06-14.39c1.33-2.72,2.51-5.51,3.77-8.26.79-1.71,1.61-3.4,2.42-5.11l-1.08-2c-2.43-.21-2.61-.08-3.65,1.56a74.91,74.91,0,0,0-5.77,11.19c-1.44,3.46-3,6.9-4.43,10.35-1.34,3.1-2.72,6.19-4,9.32-1.07,2.66-2,5.38-2.95,8.08s-1.88,5.48-2.82,8.21c-1.45,4.24-3.11,8.42-4.31,12.73-.92,3.31-2,6.58-2.67,10-.54,2.72-1.72,5.31-1.75,8.17,0,.22-.2.44-.22.67-.19,1.57-.42,3.13-.52,4.7-.13,2-.16,4.11-.23,6.07-2.66,1-5.15,1.88-7.61,2.86a8.24,8.24,0,0,0-2.42,1.37c-.81.69-.5,1.61,0,2.38s1.18.6,1.91.28c1.37-.59,2.74-1.17,4.15-1.65,2.76-.92,5.54-1.76,8.3-2.65,2.59-.84,5.14-1.79,7.75-2.54,1.74-.5,3.63-.53,5.31-1.15a32,32,0,0,1,8.38-1.47c1-.08,2-.27,3.07-.42a26.29,26.29,0,0,1,3.29-.46c2.15-.05,4.32.12,6.47,0,1.33,0,2.14.35,2.49,1.64a2.82,2.82,0,0,0,.47.74,4.14,4.14,0,0,0,1.51,0c.92-.41,1.93-.79,2.11-2A2.47,2.47,0,0,0,347.21,700.92Z" transform="translate(-107.99 -123.63)"/><path class="cls-1" d="M262,619.71a42.46,42.46,0,0,1,.68,8.78,20.6,20.6,0,0,0,1.4,9.66c.64,0,1.41.09,2.19.1,3.15,0,3.13,0,3.22-3.15s.19-6.54.39-9.8c.19-3.08.51-6.16.81-9.81-1.94-.06-3.42-.13-4.89-.13C261.42,615.34,261.31,615.37,262,619.71Z" transform="translate(-107.99 -123.63)"/><path class="cls-1" d="M282.6,615.37c-1.91-.07-3.83,0-5.74,0a1.46,1.46,0,0,0-1.64,1.61,13.47,13.47,0,0,0,.12,1.9c.24,1.8.83,3.61.71,5.38-.31,4.49,1,8.83,1,13.28,0,.14.15.27.29.51h5.58c0-1.06,0-1.91,0-2.77.09-1.75.19-3.49.32-5.23.17-2.22.41-4.43.56-6.65.13-2.06.15-4.12.28-6.19C284.17,615.84,283.94,615.42,282.6,615.37Z" transform="translate(-107.99 -123.63)"/><path class="cls-1" d="M826.91,615.36h-6.85c0,1.48-.18,2.66-.12,3.82.19,4.23.44,8.45.68,12.67.1,1.58.26,3.17.37,4.76.06.92.49,1.57,1.41,1.63,1.32.09,2.65,0,3.92,0a14.13,14.13,0,0,0,1.19-6.23c0-2.39.09-4.79.24-7.17.16-2.62.46-5.22.67-7.83C828.5,616,828.05,615.36,826.91,615.36Z" transform="translate(-107.99 -123.63)"/><path class="cls-1" d="M841.67,615.68a24.08,24.08,0,0,0-8.63.05c.16,1.5.28,2.82.46,4.13a26.62,26.62,0,0,1,.55,3.49,67.27,67.27,0,0,0,.78,12.36c.15.83.17,1.67.27,2.66l5.55-.35c.09-1.65.16-3,.23-4.33a54.35,54.35,0,0,1,.43-6.89C842,623.15,841.58,619.53,841.67,615.68Z" transform="translate(-107.99 -123.63)"/><path class="cls-1" d="M477.81,562.68c.1,1.19.12,2.39.25,3.58.43,4,1.16,8,1.27,12.09a44.68,44.68,0,0,0,1.46,10c.78,0,1.64.12,2.49.12h25.91a7.86,7.86,0,0,0,1.19,0,1.73,1.73,0,0,0,1.67-1.73A73.82,73.82,0,0,1,513,577c.4-2.4-.22-4.94.94-7.27a2.93,2.93,0,0,0,.08-1q.46-6,1-11.9c0-.47.13-.94.2-1.41.17-1.26.38-2.51.49-3.78.34-4.12.64-8.24,1-12.36a6.34,6.34,0,0,1,.26-.92c.18-.92.43-1.84.52-2.77.39-4,.73-8.07,1.09-12.1a.93.93,0,0,1,0-.24c.94-2.12.76-4.37.78-6.6,0-.64.12-1.27.19-1.91q.36-3.56.74-7.11c.07-.71-.1-1.61.26-2.09a4.7,4.7,0,0,0,.69-3.19c0-1.59,0-3.18,0-5.16-7.46.12-14.6-.47-21.93.11-.06,1.11-.15,2-.16,3a104.55,104.55,0,0,1-.2,10.78c-.54,4.61-.54,9.22-.68,13.84-.2,7.41.78,14.86-.83,22.22a8.69,8.69,0,0,0-.05,1.91c0,3.76,0,7.52-.05,11.28A8.81,8.81,0,0,1,497,562l-.55-.07c-.06-.92-.18-1.85-.19-2.77,0-4.87,0-9.75-.06-14.63,0-1.42-.29-2.85-.45-4.27s-.41-2.68-.44-4c-.15-5.91-.21-11.82-.37-17.72-.06-2.15-.39-4.3-.44-6.44-.11-4.16-.1-8.32-.16-12.47,0-2.1-.21-2.27-2.32-2.44-.24,0-.48,0-.72,0-5.43,0-10.87-.06-16.29,0-1.36,0-2.87-.27-4.09.65.17,1.05.39,2,.47,2.91.35,4.44.66,8.89,1,13.33a2.21,2.21,0,0,0,.13.94c1,1.78.75,3.72.8,5.63a7.4,7.4,0,0,0,.21,2.6c.8,1.77.62,3.58.66,5.4a11.09,11.09,0,0,0,.18,3.33c.82,2.26.68,4.56.75,6.86a8.13,8.13,0,0,0,.24,2.38c1.19,3.52.5,7.24,1.44,10.84C477.67,555.45,477.52,559.13,477.81,562.68Z" transform="translate(-107.99 -123.63)"/><path class="cls-1" d="M905.39,554.14c-7.48-.27-14.85-.24-22.39,0,0,1.1-.12,1.88-.12,2.67,0,3.51,0,7,0,10.55a13.68,13.68,0,0,1-.71,2.94,1.84,1.84,0,0,1-2.36,1.46c-1.17-.25-1.61-1-1.58-2.29,0-2.3-.08-4.61-.09-6.91q0-20.73,0-41.45c0-.72-.1-1.44-.08-2.15a18.22,18.22,0,0,1,.2-3.55,2.55,2.55,0,0,1,1.36-1.4,5.87,5.87,0,0,1,1.93-.21,7.08,7.08,0,0,1,1.38,5.08c-.07,2.88,0,5.76,0,8.64,0,.76.14,1.53.21,2.23a5.1,5.1,0,0,0,.93.22c6.4,0,12.8,0,19.19,0,2.12,0,2.38-.28,2.38-2.35a83.32,83.32,0,0,0-.58-12.42c-.89-6.05-3.06-11.22-8.26-14.89a20.14,20.14,0,0,0-12.61-4c-2.07.07-4.16.09-6.23,0a23.46,23.46,0,0,0-11.4,2.48,17.73,17.73,0,0,0-8.6,9.12,25.39,25.39,0,0,0-1.91,6.73,63.47,63.47,0,0,0-.78,10c0,12.79,0,25.59,0,38.38a37.09,37.09,0,0,0,2.86,15.05c3,6.76,8.65,9.8,15.45,11.33,5.21-.55,10.48.63,15.69-.83A22.75,22.75,0,0,0,895.7,586a19.74,19.74,0,0,0,9-14.37,82.1,82.1,0,0,0,.87-15.27C905.59,555.7,905.49,555.08,905.39,554.14Z" transform="translate(-107.99 -123.63)"/><path class="cls-1" d="M598.4,559.38a7.13,7.13,0,0,0-.38-1.53H577.56a20.49,20.49,0,0,0-.27,2.66c.14,3.88-.06,7.73.75,11.65.86,4.16,2.21,7.72,5.11,10.88,4,4.41,9,6.17,14.8,6.29,2,0,4-.07,6,0a22,22,0,0,0,9.46-1.74c7.14-3,10.4-8.7,11.57-16,.13-.79.31-1.56.43-2.35a22.89,22.89,0,0,0,.39-3.29c0-3.64.47-7.31-.78-10.89-.59-1.69-.62-3.6-1.34-5.2a38,38,0,0,0-8.23-11.62c-3.37-3.27-7-6.31-10.34-9.56a31.12,31.12,0,0,1-4-4.72c-1.56-2.24-1.09-4.91-1-7.43s1.09-3,3.45-2.5c2.25,3.79.6,8,1.52,11.91,4.1.52,17.06.51,18.78,0a4.18,4.18,0,0,0,.2-.88c0-2.72-.09-5.44.05-8.15a24.53,24.53,0,0,0-1.81-9.46c-2.18-6.34-9.93-11.35-16.57-11.13-2.15.07-4.31,0-6.47,0a20.08,20.08,0,0,0-7.05.85,19,19,0,0,0-7.5,4.5,23,23,0,0,0-6.4,15.15,90.23,90.23,0,0,0,0,9.59,15.07,15.07,0,0,0,1,5.8c1.74,3.62,3.56,7.26,6.53,10.16,2.66,2.59,4.92,5.65,7.8,8a52.48,52.48,0,0,1,7.93,8.47,5.06,5.06,0,0,1,.63,1.25c1.06,2.74,1,5.61.92,8.47,0,.55.1,1.24-.18,1.63a4.32,4.32,0,0,1-1.89,1.59c-.94.3-1.51-.41-1.92-1.34a7.57,7.57,0,0,1-.72-3.64C598.5,564.32,598.44,561.85,598.4,559.38Z" transform="translate(-107.99 -123.63)"/><path class="cls-1" d="M568.22,587.21c.72-2.06.45-4.29.95-6.27.8-3.1.09-6.39,1.48-9.35.15-.3,0-.76-.09-1.46-6.48-.33-12.92.07-19.49-.24V549.44h15.72c.7-2.61.6-16.69-.12-18.52-2.55,0-5.18,0-7.81,0s-5.21.13-7.75-.13c-.53-5.12-.31-13.06.45-14.9h2.3c4,0,8,0,12,0,2.18,0,2.33-.17,2.34-2.29q0-7,0-13.91a24.92,24.92,0,0,0-.3-2.57c-13.15.09-26.12-.12-39.18.17a12.8,12.8,0,0,0-.25,1.67c0,2.64,0,5.27,0,7.91q0,33.45,0,66.9c0,1-.08,2.08-.08,3.11,0,3.28,0,6.55.1,9.82,0,1.61.26,1.72,1.84,1.81.4,0,.8,0,1.2,0h33.33c.56,0,1.12,0,1.68,0C567.46,588.55,567.9,588.12,568.22,587.21Z" transform="translate(-107.99 -123.63)"/><path class="cls-1" d="M179.85,569.94v-20.5h2.63c3.59,0,7.19,0,10.78,0,2.4,0,2.65-.26,2.64-2.59,0-4.71-.1-9.42-.14-14.13,0-1.7,0-1.77-1.66-1.78-3.92,0-7.83,0-11.75,0-.77,0-1.55-.06-2.46-.1V515.87h2.73c4.07,0,8.15,0,12.22,0,1.69,0,2-.31,2-2,0-5,0-10.06-.09-15.1a6.55,6.55,0,0,0-.32-1.5H157.37a2.85,2.85,0,0,0-.3.81q0,44,0,88a17.21,17.21,0,0,0,.16,1.89c0,.07.09.13.14.19l.2.18h39.25c.88-6,1.74-12,2.65-18.27C192.83,569.9,186.41,570.11,179.85,569.94Z" transform="translate(-107.99 -123.63)"/><path class="cls-1" d="M306.78,551V532.79H290c.14-5.81-.15-11.26.2-16.92h4.07c3.84,0,7.68,0,11.51,0,1.82,0,2-.16,2-1.88q.06-7.19.06-14.38a20,20,0,0,0-.28-2.32c-3.29,0-6.23,0-9.17,0-6.15,0-12.3-.13-18.46-.15-3,0-6.05.15-9.07.1-3.85-.06-3.5.21-3.5,3.87V581c0,1.66-.14,3.33,0,5,.18,2.45.33,2.55,2.71,2.56q9,0,18,0a17.27,17.27,0,0,0,2-.25c0-12.41-.19-24.66.11-37.2Z" transform="translate(-107.99 -123.63)"/><path class="cls-1" d="M714.3,588.15a1.29,1.29,0,0,0,.17.16,1.35,1.35,0,0,0,.45.16q9.83,0,19.66,0a5.66,5.66,0,0,0,1.59-.5V551.43a15.38,15.38,0,0,1,2.09-.3c4.24,0,8.47,0,12.71,0,1.86,0,2,0,2-1.7q0-7.08,0-14.15c0-.76-.12-1.53-.2-2.58H736.38c-.51-3.39-.37-15,.22-16.86h15.7c1.58,0,2.19-.43,2.2-1.83,0-5,0-10.07,0-15.11,0-1.21-.53-1.77-1.71-1.78l-4.3,0q-15.59,0-31.15,0c-1,0-2,.13-2.94.19-.17.26-.32.4-.32.53q-.06,43.52-.1,87c0,1,.11,2.06.17,3.09C714.17,588,714.25,588.09,714.3,588.15Z" transform="translate(-107.99 -123.63)"/><path class="cls-1" d="M431.91,588.48c1.72-6.18,1.64-12.45,2.52-18.48-.22-.24-.33-.45-.44-.46l-19.61-.44V497.61c-.46-.25-.6-.39-.74-.39q-9.21-.06-18.43-.09c-3.39,0-3.43.06-3.43,3.51v87.25a4.83,4.83,0,0,0,1.48.57C406.11,588.49,419,588.48,431.91,588.48Z" transform="translate(-107.99 -123.63)"/><path class="cls-1" d="M130.18,569.18V526.06c0-4.79,0-9.58,0-14.38s.2-9.51-.12-14.2c-6-.7-20.05-.52-22.06.28v90.45a14.59,14.59,0,0,0,2,.29q18.09,0,36.19,0c2,0,2.15-.12,2.36-2.07.15-1.42.12-2.85.2-4.27,0-.71.1-1.42.2-2.13q.28-2.1.63-4.2c.18-1.17.33-2.35.61-3.49a3.11,3.11,0,0,0-.4-3.16Z" transform="translate(-107.99 -123.63)"/><path class="cls-1" d="M441.22,500.18c0,2.71.18,5.42.18,8.14q0,32.71,0,65.45c0,4.22-.09,8.45-.09,12.68,0,2,.05,2,1.9,2l18.22,0c.47,0,.94-.08,1.66-.14V497.28H441.5A25.54,25.54,0,0,0,441.22,500.18Z" transform="translate(-107.99 -123.63)"/><path class="cls-1" d="M824,497.28a2.33,2.33,0,0,0-.26.28,1.68,1.68,0,0,0-.22.42,3.36,3.36,0,0,0-.09.7q0,43.91,0,87.79a13.65,13.65,0,0,0,.14,1.42.47.47,0,0,0,.11.21,2.85,2.85,0,0,0,.3.29h21c.53-3,.38-89.24-.16-91.11Z" transform="translate(-107.99 -123.63)"/><path class="cls-1" d="M994.46,563.08c-.93-.09-1.79-.25-2.64-.25-5.9,0-11.79,0-17.68.08-1.58,0-1.84.2-1.85,1.73,0,4.55,0,9.09,0,13.63,0,2.8,0,5.59.06,8.38,0,1.5.43,1.85,1.86,1.86q9.23,0,18.44,0c1.84,0,1.85-.09,1.85-1.87C994.45,578.91,994.46,571.18,994.46,563.08Z" transform="translate(-107.99 -123.63)"/><path class="cls-1" d="M360.06,560.06c.4,0,.79,0,1.19,0,1.14,0,1.68-.53,1.66-1.8-.08-4.22,0-8.45-.05-12.67,0-2.16-.3-2.42-2.54-2.45s-4.29,0-6.43,0c-5.27,0-10.53,0-15.79,0-1.19,0-2.42-.1-3.17.88v15.75c1.26.12,2.19.28,3.12.28C345.38,560.08,352.72,560.07,360.06,560.06Z" transform="translate(-107.99 -123.63)"/><path class="cls-1" d="M215,497.37q-1.56,15.08-3.12,30.2c-1,10.17-1.93,20.36-3.14,30.51-1.68,14-3.05,28.67-2.52,30.23,7,0,14.1,0,21.27-.16.5-6.42,1-12.52,1.47-18.74h6.88c.5,6.23,1,12.4,1.51,18.8,7.51-.28,14.81-.13,22.26-.69-3.28-30.19-6.51-60-9.78-90.15Zm14.27,54a15.6,15.6,0,0,1-.11-1.88q.82-14.12,1.69-28.22c.08-1.44.17-2.87.22-4.31,0-1.12.65-1.33,2-1.07.75,11.81,1.49,23.57,2.24,35.48Z" transform="translate(-107.99 -123.63)"/><path class="cls-1" d="M762.94,588.36c.63.06,1,.14,1.41.14h18.94a1.28,1.28,0,0,0,1.5-1.43c0-.8,0-1.6,0-2.4,0-9.27,0-18.54,0-27.81,0-2.19.19-4.39.29-6.56,3.18-.09,4.28.78,4.61,3.65.24,2.13.49,4.28.52,6.43q.18,11.75.19,23.49a7.29,7.29,0,0,0,1.62,4.64h19.44c1.53-.15,1.77-.52,1.55-2a39.62,39.62,0,0,1-.58-5.19c-.06-7.2,0-14.39-.05-21.58a33.65,33.65,0,0,0-.67-8.51c-.89-3.38-2.31-6.12-5.1-8.17-.38-.28-.78-.54-1.22-.86.11-.32.11-.43.17-.46,4-2.84,6.6-6.49,6.87-11.54a9.68,9.68,0,0,1,.29-1.15,22.16,22.16,0,0,0,.58-3.74,54.42,54.42,0,0,0-.74-10.93c-.76-3.6-1.47-7-3.91-9.9a15.74,15.74,0,0,0-5.86-4.65,28.43,28.43,0,0,0-11.74-2.53c-1.75,0-3.5,0-5.25,0-6.87,0-13.74-.11-20.61-.13-2.41,0-2.59.2-2.59,2.61q0,43,0,86.08A22.38,22.38,0,0,0,762.94,588.36Zm22.17-74.06c3.61-.6,5.29.74,5.31,4.15,0,3.6-.08,7.2,0,10.8a4,4,0,0,1-5.33,4Z" transform="translate(-107.99 -123.63)"/><path class="cls-1" d="M682,585.63c0,2.6.31,2.87,2.92,2.87h17.75a15.49,15.49,0,0,0,1.67,0c1.18-.13,1.43-.6,1.25-1.75-.28-1.72-.47-3.45-.68-5.18s-.4-3.15-.59-4.73c-.13-1-.26-2.05-.34-3.08q-.48-5.82-.92-11.63a1.39,1.39,0,0,0-.09-.46c-1-1.78-.7-3.73-.77-5.62a10.78,10.78,0,0,0-.16-2.62c-1.25-4.26-.64-8.71-1.44-13-.29-1.53.2-3.28-.32-4.69a16.33,16.33,0,0,1-.68-5.16,8.5,8.5,0,0,0-.31-2.83,13,13,0,0,1-.6-5.17,7.59,7.59,0,0,0-.1-2.62c-1-2.46-.83-5-.87-7.56a15.85,15.85,0,0,0-.13-1.67c-.22-2-.43-3.94-.71-5.9-.34-2.48-.74-5-1.1-7.36-6.79-.71-32.64-.53-34.75.19-.39,2.62-.85,5.2-1.11,7.8a66.43,66.43,0,0,1-.81,8,80.43,80.43,0,0,0-.92,8.69c-.34,3.18-.88,6.37-1.07,9.58-.16,2.7-.53,5.38-.75,8.07-.35,4.2-.66,8.4-1,12.59a5.44,5.44,0,0,1-.15.7,30.83,30.83,0,0,0-.68,4.43c-.07,3.82-1.18,7.51-1.26,11.36,0,2.15-.56,4.39-.6,6.62a15.7,15.7,0,0,1-.3,2.36c-.18,1.07-.51,2.13-.6,3.2-.19,2.27.4,4.6-.89,7,2.72.74,5.27.32,7.77.38s4.95,0,7.43,0a65.74,65.74,0,0,0,7.56-.15,41.38,41.38,0,0,0,1-4.34c.16-1.5.05-3,.06-4.55,0-1.84-.06-3.68,0-5.52a19.39,19.39,0,0,1,.56-3.28,1.6,1.6,0,0,1,1.95-1.31c1.1.1,2.2,0,3.5,0a3.75,3.75,0,0,1,.48,1c.28,2.61.61,5.23.74,7.85C682.12,580.67,682,583.15,682,585.63ZM680.38,548c-.08.77-.09,1.55-.13,2.38h-4a8.48,8.48,0,0,1-.1-1.07c.08-3.42.1-6.85.28-10.27.12-2.37.57-4.73.68-7.1.17-3.5.15-7,.24-10.51,0-.93.16-1.86.24-2.79l.5-.06a9.43,9.43,0,0,1,.39,1.61c.37,6.35.63,12.7,1.07,19C679.79,542.19,680.67,545.05,680.38,548Z" transform="translate(-107.99 -123.63)"/><path class="cls-1" d="M963.5,568.1a2.33,2.33,0,0,0-.17-.93c-1-1.71-.71-3.56-.77-5.39,0-1.11-.19-2.22-.3-3.33-.16-1.5-.36-3-.5-4.5-.41-4.25-.44-8.59-1.3-12.75-.73-3.52-.42-7.09-1.34-10.62s-.65-7.24-.87-10.89c-.22-3.89-1.33-7.7-1.07-11.63a1.74,1.74,0,0,0-.19-.69,14.6,14.6,0,0,1-.62-5.91c.08-3.5-.66-4.31-4.09-4.33-5.12,0-10.23,0-15.35,0-4.79,0-9.58.09-14.37.13-1.7,0-1.86.1-2.25,1.78a14.06,14.06,0,0,0-.26,2.6c0,.86.08,1.74,0,2.6q-.78,7.93-1.62,15.86c-.26,2.35-.58,4.7-.86,7-.19,1.58-.39,3.16-.57,4.73a32.55,32.55,0,0,0-.36,3.8c0,4-1.5,7.83-1,11.86a.76.76,0,0,1-.1.46c-1.16,1.82-.78,3.85-.77,5.83a15,15,0,0,1-.07,1.64c-.21,1.81-.46,3.61-.66,5.42-.11,1-.14,1.91-.24,2.85-.22,2.13-.48,4.26-.71,6.39-.09.87-.11,1.74-.2,2.61-.23,2.13-.49,4.25-.73,6.38a8.08,8.08,0,0,1-.28,2.34c-1,2.17-.33,4.39-.66,6.75.95.12,1.64.28,2.33.29q9.11,0,18.21,0c2.12,0,2.23-.17,2.27-2.39,0-1.12,0-2.24,0-3.36,0-1.84-.31-3.77.17-5.48a28.22,28.22,0,0,0,.76-6.37,6.2,6.2,0,0,1,.45-1.44l5.94.32c.47,6.3-.45,12.48,1.35,18.43,3.31.59,20.7.42,22.42-.25.24-2.36-.31-4.68-.6-7C964,576.66,963.83,572.37,963.5,568.1Zm-27.64-17.67a61,61,0,0,1,0-6.63,169.73,169.73,0,0,0,.92-17.46,9.47,9.47,0,0,1,1.19-5.28c1.21,9.71,1.67,19.45,2.13,29.37Z" transform="translate(-107.99 -123.63)"/><path class="cls-1" d="M580.84,244.65c.27,5.41.64,10.82,1,16.23a5.47,5.47,0,0,0,.16.7,70.65,70.65,0,0,1,1.46,7.95,24,24,0,0,0,1.06,4.59,94.61,94.61,0,0,0,3,10.18,76.1,76.1,0,0,0,8.26,15,83.54,83.54,0,0,0,12,14.19,76.34,76.34,0,0,0,17.27,12.28,86.1,86.1,0,0,0,11.24,5c4.63,1.52,9.47,2.41,14.22,3.54,1.35.32,2-.25,2-1.56,0-1.11,0-2.22,0-3.33,0-7.67,0-15.35,0-23a4.35,4.35,0,0,0-1.12-3.06c-1.74-2-3.43-4-5.15-6-4-4.66-8-9.31-12-14q-6.81-8-13.57-16.1c-.6-.71-1.21-1.41-2.08-2.4a5,5,0,0,1,1,.18q6.69,3.24,13.37,6.51,6.38,3.15,12.72,6.37c.68.34,1.27.68,1.93-.09-.53-2.6-1-5.23-1.6-7.85-.31-1.47-.66-2.92-1-4.37-.49-2-1-4-1.51-5.94-.56-2.21-1.12-4.43-1.64-6.64a50.63,50.63,0,0,1-1.16-5.52,7.23,7.23,0,0,0-1.63-3.89c-.93-1.1-1.91-2.16-2.88-3.22Q625.66,228.75,615,217.1a13.35,13.35,0,0,1-1-1.42l.25-.25L635,229.14l.49-.33c-4.25-14.38-8.88-28.64-12.84-43.12,9.62,11.86,16.64,25.17,22.87,39.46a15.2,15.2,0,0,0,1.49-2.26c2.17-5.16,4.27-10.35,6.42-15.51.11-.26.54-.4,1.23-.88-.16,1.39-.24,2.32-.37,3.24-.16,1.1-.46,2.19-.53,3.3-.36,5.32-.66,10.65-1,16,0,.47-.2.93-.28,1.41-.23,1.48-.51,3-.64,4.47-.19,2.12.33,4.3-.55,6.39-.14.35.12.91.28,1.34,1.59,4.19,3.23,8.36,4.8,12.55,1.86,4.95,3.66,9.91,5.5,14.87.28.74.74,1.23,1.74.88q5.82-11.52,11.69-23.17a5.86,5.86,0,0,1,.39,2.88c-.11,1-.4,2-.57,3-.4,2.27-.73,4.54-1.16,6.8-.47,2.47-1.07,4.91-1.53,7.38s-.69,4.7-1.16,7-1.27,4.58-1.62,6.91c-.43,3-.48,6-1.49,8.82-.1.31.15.75.27,1.12,2.08,6.35,4.46,12.62,5.92,19.17.87,3.93,2.21,7.76,2.45,11.82a6.34,6.34,0,0,0,.26.92,25.81,25.81,0,0,1,.64,3.47c.11,1.75,0,3.52,0,5.27a18.6,18.6,0,0,0,.34,2.12c2.56-1.85,4.95-3.31,7-5.12a61.71,61.71,0,0,0,11.67-13.84,70.15,70.15,0,0,0,7.08-15c.84-2.53,1.42-5.16,2-7.77.39-1.68.61-3.41.89-5.12.24-1.48.5-3,.69-4.44.15-1.18.24-2.38.31-3.57.17-2.87.48-5.74.42-8.6-.07-3.59-.45-7.17-.73-10.75-.06-.7-.26-1.4-.38-2.1-.19-1.09-.38-2.18-.55-3.28-.33-2.19-.56-4.4-1-6.57-.4-2-1-4-1.54-5.93-.68-2.67-1.12-5.43-2-8-1.16-3.25-2.74-6.35-4.09-9.54a194,194,0,0,0-16.74-30.64c-2-3-4.07-5.9-6.18-8.79-1.93-2.63-3.9-5.23-5.94-7.76-1.85-2.29-3.86-4.45-5.73-6.72a98.4,98.4,0,0,0-19.46-18c-7.09-5-14.42-9.64-21.75-14.29-6-3.83-12.19-7.5-18.36-11.11-2.84-1.67-5.7-3.42-9.33-4-.14,2-.38,3.73.38,5.43a5.46,5.46,0,0,1,.29,2.1c0,6.72,0,13.44,0,20.15a9.85,9.85,0,0,1-.06,1.44c-.56,3.6-1.22,7.18-1.67,10.79a72.68,72.68,0,0,1-3.43,15.66c-1.24,3.45-1.91,7.12-2.93,10.66a69.49,69.49,0,0,0-2.52,12.54c0,.31-.2.6-.26.92-.22,1.23-.43,2.48-.64,3.72-.12.7-.24,1.4-.35,2.11-.21,1.41-.43,2.82-.6,4.24a14.28,14.28,0,0,1-.16,2.38,23.13,23.13,0,0,0-.67,6.88,17.86,17.86,0,0,1-.21,3.59,57.47,57.47,0,0,0-.73,11.93C580.83,240.33,580.73,242.5,580.84,244.65Zm74.47-7.05c.69-2.83,1.65-5.58,2.44-8.38.42-1.51.71-3.06,1.06-4.59.81-3.45,1.64-6.9,2.44-10.35.24-1.06.38-2.14.66-3.67a74,74,0,0,1,6.77,5,66.63,66.63,0,0,1,11,12.56,62.59,62.59,0,0,1,6.91,14.72c2.09,6.49,2.37,13.09,1.95,19.8-.14,2.15-.22,4.3-.27,6.46s.11,4.32-.72,6.38a4.21,4.21,0,0,0-.18,1.18,76.59,76.59,0,0,1-1,8.74c-1,4.53-1.55,9.2-3.21,13.6-.83,2.2-1.45,4.48-2.3,7.18-1-1.95-1.85-3.48-2.59-5.06-1.72-3.7-3.42-7.41-5-11.16-.55-1.27-1.2-2.58-.45-4.08a4.94,4.94,0,0,0,.13-1.9c0-1.59-.16-3.21.73-4.67a.56.56,0,0,0,.06-.23c.34-2.9.68-5.81,1-8.71.12-.94.3-1.87.47-2.81.06-.31.23-.6.27-.91.38-3.16.7-6.32,1.13-9.47.41-3,.92-5.93,1.38-8.89.09-.55.17-1.1.21-1.66a14.19,14.19,0,0,1,.73-4.93,3.43,3.43,0,0,0-.41-3.49c-2.75,3.08-4.59,6.57-6.89,9.71s-4.08,6.57-6.91,9.62c-2.14-4.07-4.16-7.9-6.16-11.74-1-1.84-2-3.66-2.79-5.55A4.65,4.65,0,0,1,655.31,237.6ZM605.9,199.86a3.4,3.4,0,0,0,.3-.9c.32-2.75.62-5.51.93-8.27.07-.63.1-1.27.21-1.89.54-3,1-6.1,1.7-9.09,1.07-4.52,2.27-9,3.57-13.49.55-1.88,2.1-2.34,3.81-1.25a58.19,58.19,0,0,1,5.83,4.16c3.26,2.69,6.47,5.45,9.57,8.32,5,4.61,9.81,9.36,14.74,14,1.51,1.42,3.16,2.68,4.75,4-2.4,4.89-4.52,9.24-6.8,13.9-1.46-2-2.67-3.66-3.89-5.3-3.07-4.15-6.23-8.25-9.2-12.47a83,83,0,0,0-8.61-10.54c-.91-.92-1.64-2.19-3.49-2.21a10,10,0,0,0,.18,5.11,37,37,0,0,1,1.38,5.51,85.59,85.59,0,0,0,2.31,9.61c.53,1.8.74,3.7,1.13,5.55a24.55,24.55,0,0,0,1.18,5c.88,2,.64,3.86.17,6.14-1.44-.76-2.85-1.38-4.13-2.19-4.71-3-9.38-6-14.06-9C605.25,203.15,605,202.29,605.9,199.86Zm-2.07,28.81a51.6,51.6,0,0,1,.84-6.86c.17-1.06.56-2.09.94-3.47,1.81,1.77,3.42,3.26,4.94,4.84,7.2,7.47,14.32,15,21.6,22.4a12.92,12.92,0,0,1,2.8,5.32c1.09,3.2,2,6.47,3,9.69s2.13,6.37,3.34,10a11.31,11.31,0,0,1-2.07-.34Q631.6,267.15,624,264c-2.33-.95-4.62-2-7-2.92a9.74,9.74,0,0,0-2.07-.33,33.61,33.61,0,0,0,3.87,10.54c.91,1.77,1.78,3.56,2.78,5.28.46.8,1.26,1.4,1.75,2.18A145.92,145.92,0,0,0,638,297.83c1.74,2,3.46,3.94,5.13,6a2.93,2.93,0,0,1,.71,1.66c0,5.44,0,10.87-.08,16.31a4.76,4.76,0,0,1-.29,1,31.84,31.84,0,0,1-5.36-3.91c-3.78-3.55-7.58-7.1-11-11a87.86,87.86,0,0,1-6.67-9.27c-1.56-2.29-3-4.65-4.42-7A93.63,93.63,0,0,1,608.32,273a84.26,84.26,0,0,1-1.87-8.54c-.36-1.7-.76-3.39-1-5.1a81.58,81.58,0,0,1-1.55-10.35C603.61,242.26,603.72,235.46,603.83,228.67Z" transform="translate(-107.99 -123.63)"/><path class="cls-1" d="M398,337.58a51.18,51.18,0,0,0,5.31,11.87c2.59,3.92,5.13,7.91,9,10.73a12,12,0,0,0,1.55.82c.47-2.2.83-4.13,1.31-6,.52-2.05,1.11-4.08,1.73-6.11a124.07,124.07,0,0,1,7.54-18.66,4.33,4.33,0,0,0,.27-2.07c-.12-2-.35-3.95-.51-5.93a27.48,27.48,0,0,0-.3-4.28,32,32,0,0,1-.69-7.61,32.33,32.33,0,0,0-.33-4.28c-.37-2.73-.91-5.44-.32-8.7a17.89,17.89,0,0,1,1.05,1.95c1.83,4.94,3.63,9.89,5.44,14.83a1.15,1.15,0,0,0,1.71.78c2.93-5.8,5.83-11.63,8.83-17.41a11.34,11.34,0,0,0,1.43-5.9c-.12-3.19,0-6.4,0-9.59s0-6.07.11-9.11c0-.88-.13-1.95,1.32-2.55,1.26,4,2.51,8,3.81,12.12,3.16-4.94,6-9.65,9.14-14.22a65.5,65.5,0,0,1,10.77-12.8,86.18,86.18,0,0,1-3.16,8.36c-1.27,3-2.62,5.88-3.91,8.84-1.47,3.39-3,6.76-4.3,10.22-.33.86-1.37,1.83-.48,3.13,5-2.51,9.8-5.3,15.32-7.8a8.09,8.09,0,0,1-.66,1.14q-5.49,5-11,9.93c-2.9,2.62-5.81,5.24-8.69,7.88a3.47,3.47,0,0,0-.92,1.33c-1.36,4-2.66,8.07-4,12.11q-1.8,5.46-3.62,10.94c.42.16.68.38.85.32q10.6-3.87,21.2-7.78l.17.32c-.21.23-.41.48-.64.69-2.53,2.31-5.12,4.56-7.58,6.94-6.1,5.87-12.15,11.79-18.21,17.7-.45.45-1.05.92-1.18,1.47a42.23,42.23,0,0,0-1.08,6.09c-.19,2.45.21,4.95-.88,7.3a3.83,3.83,0,0,0-.11,1.19c-.15,2.05-.29,4.11-.46,6.17a1.25,1.25,0,0,0,1.36,1.54,4,4,0,0,0,1.43-.14c2.88-.95,6-.07,8.89-1.38,1.69-.77,3.72-.75,5.51-1.35a46.88,46.88,0,0,0,11.16-5,97.36,97.36,0,0,0,10.84-7.76,61.19,61.19,0,0,0,10.58-12.2,55.28,55.28,0,0,0,8-18.95c.39-1.77.86-3.53,1.21-5.3.53-2.63,1-5.26,1.47-7.91.28-1.72.41-3.47.6-5.21a33.24,33.24,0,0,0,.35-3.56c0-8.48.12-16.95,0-25.42-.06-3.48-.64-7-1-10.44,0-.15-.11-.3-.14-.45-.51-2.15-1.14-4.28-1.47-6.46-.41-2.65-.51-5.35-.82-8a68.44,68.44,0,0,1-.22-14.8c.4-4.11.65-8.23,1-12.34a5.38,5.38,0,0,1,.5-1.58,7.25,7.25,0,0,0,.15-4.74c-1.91-.29-3.47.61-5,1.28-3.76,1.6-7.5,3.28-11.21,5s-7.19,3.37-10.72,5.2c-3.24,1.68-6.3,3.72-9.59,5.28-5.73,2.72-10.63,6.6-15.41,10.63a91.69,91.69,0,0,0-12.15,11.82c-2.57,3.14-5.52,6-7.94,9.26a194.84,194.84,0,0,0-13.65,20.44,79.76,79.76,0,0,0-7,17.22c-.74,2.57-1.34,5.18-1.88,7.8a51.41,51.41,0,0,0-1.5,8.64c-.2,6.27-.77,12.59.73,18.81C397.35,333.72,397.4,335.75,398,337.58Zm78.91-45.89a3.37,3.37,0,0,0-.14,1.42c.29,4.89-1.07,9.58-1.87,14.33a50.39,50.39,0,0,1-2.42,7.63c-.82,2.39-1.63,4.79-2.59,7.12a60.5,60.5,0,0,1-2.84,6,78.79,78.79,0,0,1-7.88,11.61A59.56,59.56,0,0,1,444,353.07c-1.11.69-2.21,1.4-3.65,2.32,0-1,0-1.54.09-2.07.23-2.45.57-4.9.67-7.36a7.18,7.18,0,0,1,2.27-5.54c2.21-1.93,4.5-3.81,6.51-5.95,3.21-3.42,6.24-7,9.3-10.57,1.24-1.44,2.29-3,3.54-4.49,1.79-2.07,2.7-4.61,3.79-7a4.64,4.64,0,0,0,0-1.57l-20.08,5.89c.34-.93.58-1.75.93-2.53,2.07-4.67,4.12-9.35,6.31-14a8.19,8.19,0,0,1,2.25-2.42q5.07-4.36,10.22-8.63c3.49-2.88,7-5.71,10.84-8.82a20.35,20.35,0,0,1,.55,3.33C477.57,286.34,478.05,289.08,476.94,291.69Zm-26.58-36.31c2.06-1.63,4.13-3.25,6.27-4.79,5.21-3.73,10.19-7.79,15.93-10.79,1.84-1,3-.4,3.32,1.41.38,2.33,1.45,4.58,1,7a2.64,2.64,0,0,0,.07,1.19c1.24,3.74.62,7.61.86,11.42.16,2.54.32,5.08.51,7.91-2.66,1.32-5.43,2.69-8.18,4.07l-8.55,4.3c.35-1.74.53-3.16.93-4.52.5-1.72,1.18-3.4,1.79-5.09,1.65-4.53,3.31-9,4.93-13.58a13.89,13.89,0,0,0,.61-2.79,5.25,5.25,0,0,0-.2-1.5c-.51.09-1.16,0-1.51.3a51,51,0,0,0-4.08,3.7q-4.94,5.05-9.75,10.23c-1.36,1.45-2.56,3.05-3.88,4.54a20.94,20.94,0,0,1-1.85,1.59c-1.32-3.49-2.53-6.71-3.79-10.08C446.7,258.39,448.51,256.85,450.36,255.38ZM411.9,303.32a41.47,41.47,0,0,1,4.68-15.08c3-5.42,7.23-9.7,11.9-13.58a72,72,0,0,1,6.64-4.38c1.43,2.46.47,5,1,7.23a68.18,68.18,0,0,1,1.25,6.94c.34,2.33.54,4.68.85,7.46-2.62,4-5.41,8.22-8.35,12.67-3.65-4.9-5.63-10.55-9.3-15.81-.3,1-.61,1.48-.5,1.82.94,3.2.53,6.49.68,9.73q.49,10.77.93,21.53a19.78,19.78,0,0,1,0,4.07,10.54,10.54,0,0,1-1.32,3.22c-1.63,2.94-3.32,5.84-5,8.74a13.77,13.77,0,0,1-1.58,1.7,73.58,73.58,0,0,0-1.14-7.86c-1.41-5.43-.69-11-1-16.44A68.23,68.23,0,0,1,411.9,303.32Z" transform="translate(-107.99 -123.63)"/><path class="cls-1" d="M524,408.71c-.26,3.08.74,5.93,1.41,8.87.76,3.29,2.45,6.11,4,9a54,54,0,0,0,3.84,5.52c1.9-1.47,3.63-2.62,5.14-4,2.51-2.34,4.85-4.84,7.31-7.24,5-4.85,8.43-10.73,11.48-16.87a59.6,59.6,0,0,0,4.41-11.91c.52-2.05.7-4.19,1.06-6.28.12-.72.09-1.56,1.08-2.12.14.89.19,1.59.36,2.25.88,3.5,2,6.92,2.66,10.49a87.41,87.41,0,0,1,1.68,9.57,69.54,69.54,0,0,1-1.24,16.86,22.06,22.06,0,0,1-.77,3.21c-1.08,3.27-2.25,6.51-3.33,9.78-.12.36.15.86.28,1.45,1.3-.55,2.31-.92,3.29-1.39,3.92-1.89,6.75-5.06,9.26-8.46a53.57,53.57,0,0,0,4.29-7.38,59.6,59.6,0,0,0,5.43-15.31,44.69,44.69,0,0,0,.66-11.67c-.24-3.69-.25-7.43-1.21-11.13-.54-2.1-1.08-4.25-1.62-6.38a46.87,46.87,0,0,0-4.91-11.51,65.22,65.22,0,0,0-6.59-9.62,80.6,80.6,0,0,0-7.83-7.74,42.61,42.61,0,0,0-4.23-3.07c-.81,2.38-1.46,4.48-2.22,6.53a51,51,0,0,1-8.53,14.23c-2.3,2.85-4.83,5.52-7.26,8.27-1.79,2-3.72,4-5.35,6.11-2.39,3.16-4.73,6.39-6.81,9.76-3.68,5.94-6.31,12.25-5.75,19.47A4.33,4.33,0,0,1,524,408.71Z" transform="translate(-107.99 -123.63)"/><path class="cls-1" d="M471.84,438.78a96.11,96.11,0,0,1-14.19-10.43A75.43,75.43,0,0,1,444,411.52a101.74,101.74,0,0,1-9.13-19.76c-.39-1.11-.69-2.26-1-3.4-.68-2.68-1.34-5.35-2-8-.5-2-1.14-4-1.45-6-.43-2.81-.59-5.66-.91-8.49-.09-.87-.32-1.72-.45-2.59a24.8,24.8,0,0,1-.44-3.31c0-4,0-8,0-12,0-3.59,0-7.19,0-10.79,0-.64.22-1.53-1-1.5-1,2.87-2.18,5.69-3,8.61-.63,2.18-1.34,4.35-1.89,6.52-.89,3.51-1.2,7.17-1.76,10.76-.05.31-.17.61-.21.93-.21,1.4-.44,2.8-.6,4.21a15.61,15.61,0,0,1-.21,2.85,23,23,0,0,0-.7,8.32c.21,4.45.59,8.88.91,13.33a5.69,5.69,0,0,0,.12.7c.54,2.23,1.25,4.42,1.59,6.67a38.52,38.52,0,0,0,1.82,7.33,79,79,0,0,0,8.58,17.75,123.9,123.9,0,0,0,7.88,10.5,90.24,90.24,0,0,0,22,18.52,73.86,73.86,0,0,0,13.21,6.48A89.65,89.65,0,0,0,488.47,463a34.4,34.4,0,0,0,6.33,1q10.65.19,21.3,0a47.37,47.37,0,0,0,7-1.1c1.4-.24,2.81-.46,4.17-.83,1.75-.46,3.45-1.06,5.17-1.61,3.67-1.18,7.35-2.33,11-3.6.58-.2,1-.92,1.72-1.68h-1.38c-3.34.09-6.69.32-10,.23-4.23-.12-8.44-.49-12.66-.77a11.37,11.37,0,0,1-1.43-.16c-2.71-.54-5.39-1.3-8.12-1.6a48.51,48.51,0,0,1-8.36-1.66c-3.71-1.06-7.54-1.76-11.16-3A108.77,108.77,0,0,1,471.84,438.78Z" transform="translate(-107.99 -123.63)"/><path class="cls-1" d="M640,432.82a82.63,82.63,0,0,0,17.38-21.39,109.45,109.45,0,0,0,6.13-12.55c1.54-3.67,2.64-7.54,3.86-11.35a27.35,27.35,0,0,0,1-4.36c.41-2.82.69-5.66,1-8.49,0-.32.17-.62.21-.93a42.1,42.1,0,0,0,.65-5c.09-4.64.07-9.27,0-13.91,0-1.67-.13-3.34-.29-5-.15-1.49-.43-3-.65-4.46-.16-1.1-.31-2.2-.49-3.29-.12-.71-.33-1.39-.46-2.09-.37-2-.66-4.07-1.09-6.07-.26-1.2-.72-2.34-1.15-3.7-1.31.67-.94,1.65-1,2.46-.06,3.9.26,7.82-.88,11.65a10.86,10.86,0,0,0-.1,1.91c-.13,1.1-.28,2.19-.46,3.29-.37,2.26-.74,4.52-1.16,6.77-.37,2-.71,4-1.22,6-.72,2.72-1.56,5.42-2.41,8.11-1,3.29-2.06,6.59-3.23,9.84-.88,2.44-1.9,4.84-3,7.2a117.8,117.8,0,0,1-5.47,11c-2.71,4.49-5.76,8.78-8.82,13a59,59,0,0,1-5.67,6.76c-5,5.14-9.8,10.49-15.55,14.84-3.92,3-7.78,6.06-11.9,8.73s-8.71,5.22-13.21,7.55a145,145,0,0,1-13.29,6.12c-5.21,2-10.6,3.58-15.87,5.47a105.9,105.9,0,0,1-13.8,3.46c-1.77.38-3.59.58-5.37.9-3,.55-6.06,1.31-9.12,1.66-3.94.44-7.91.54-11.87.84-1,.08-2.08-.21-3,.88a6.75,6.75,0,0,0,1.38.53q7.1.93,14.19,1.81a17.2,17.2,0,0,0,2.15.11c6.24,0,12.47,0,18.71,0a28.74,28.74,0,0,0,3.57-.34c1.49-.18,3-.4,4.47-.6a16.89,16.89,0,0,0,2.14-.25c3.43-.91,7-1.28,10.41-2.29,3.14-.92,6.34-1.7,9.48-2.68a116.54,116.54,0,0,0,16.68-6.73,152,152,0,0,0,23.1-14.15C631,440.62,635.51,436.72,640,432.82Z" transform="translate(-107.99 -123.63)"/><path class="cls-1" d="M524.15,448.8A43.91,43.91,0,0,0,546,445.3c8.31-3.75,13.78-9.89,16-18.81.4-1.68.18-3.57.82-5.13,1-2.42.83-4.86.75-7.29s-.47-5.15-.78-7.72c0-.37-.43-.71-.73-1.17a6.43,6.43,0,0,0-.52.77,82.74,82.74,0,0,1-12.24,18.61,61.53,61.53,0,0,1-17.31,14.51,53.57,53.57,0,0,1-8.56,3.89,80.3,80.3,0,0,1-8.76,1.91,8.61,8.61,0,0,0-1.37.61,10,10,0,0,0,.89.72C517.23,448,520.74,448.54,524.15,448.8Z" transform="translate(-107.99 -123.63)"/></svg>